:SAMPLES-PER-SECOND 30
:FULLY-SPECIFIED
:DEGREES
155
root  -51.0201 40.9386 -29.3892 176.757 -30.3451 179.446
RightUpLeg  -8.98631 -4.44186 -4.06564
RightLeg  26.5638 -3.8048 -2.30097
RightFoot  -10.3412 -0.107739 4.41376
RightToes  5.82063e-011 0 -3.6325e-017
Spine  3.7807 0.237693 3.61477
Spine1  6.91498 0.545254 -1.56765
HEad  -15.7734 4.58807 -2.73908
LeftShoulder1  4.62054 -7.07198 -37.5077
LeftArm  -18.1009 18.5576 -18.3528
LeftForeArm  24.9473 -18.3955 -2.95838
LeftHand  -0.244104 0.0205437 5.32207
RightShoulder  5.03419 8.35957 36.4374
RightArm  -16.5272 -18.1014 25.8674
RightForeArm  8.29399 11.9388 4.33932
RightHand  -1.26301 4.09432 -15.6358
LeftUpLeg  -4.82959 4.52049 0.290746
LeftLeg  6.27188 8.71811 -4.28617
LeftFoot  1.30353 -0.444756 3.9427
LeftToes  1.2005e-010 6.1915e-012 3.32694e-011
156
root  -51.2711 41.0149 -29.7067 177.349 -30.2336 179.704
RightUpLeg  -8.19747 -4.81549 -4.00262
RightLeg  19.0582 -4.24071 -1.86357
RightFoot  -9.2712 -0.122384 3.45792
RightToes  5.82063e-011 0 -3.6325e-017
Spine  3.3371 -0.0140012 3.48267
Spine1  6.16293 0.232981 -1.3948
HEad  -15.8783 5.27935 -2.85405
LeftShoulder1  3.9663 -6.27986 -34.4271
LeftArm  -16.6637 17.7994 -15.1183
LeftForeArm  22.8165 -16.1314 -2.96299
LeftHand  -0.244104 0.0205437 5.32207
RightShoulder  4.40305 7.5761 33.7872
RightArm  -18.4672 -18.7788 22.7246
RightForeArm  6.59627 10.5854 3.90808
RightHand  -1.17531 3.91962 -14.847
LeftUpLeg  -4.55834 4.58637 0.420023
LeftLeg  5.5323 8.75555 -4.412
LeftFoot  0.978838 -0.468959 4.28756
LeftToes  1.2005e-010 6.1915e-012 3.32694e-011
157
root  -51.5074 41.0703 -30.0281 178.049 -30.2911 179.657
RightUpLeg  -7.68082 -6.58909 -4.14076
RightLeg  13.664 -1.96911 -0.450278
RightFoot  -5.70139 -0.120638 1.74189
RightToes  5.82063e-011 0 -3.6325e-017
Spine  2.6973 -0.245225 3.233
Spine1  5.63347 -0.0414217 -1.26777
HEad  -15.7122 5.76503 -2.8674
LeftShoulder1  3.30633 -5.42844 -30.9045
LeftArm  -15.6233 16.9841 -12.222
LeftForeArm  20.5038 -13.4597 -3.04951
LeftHand  -0.244104 0.0205437 5.32207
RightShoulder  3.72219 6.64228 30.7259
RightArm  -19.1417 -18.8321 19.2571
RightForeArm  4.58185 9.06002 3.58587
RightHand  -1.15629 3.92397 -14.6052
LeftUpLeg  -4.41279 4.38208 0.262612
LeftLeg  5.0561 8.90047 -4.41416
LeftFoot  0.600897 -0.442115 4.1901
LeftToes  1.2005e-010 6.1915e-012 3.32694e-011
158
root  -51.7004 41.1343 -30.3454 178.369 -30.2699 179.694
RightUpLeg  -7.16348 -7.54073 -4.21987
RightLeg  11.4443 -0.454744 0.614472
RightFoot  -2.41683 -0.00634909 -0.167987
RightToes  5.82063e-011 0 -3.6325e-017
Spine  2.10919 -0.321385 3.21074
Spine1  5.62577 -0.134517 -1.19886
HEad  -15.5165 5.86175 -2.71601
LeftShoulder1  2.66932 -4.52171 -27.0604
LeftArm  -15.378 16.0266 -9.91548
LeftForeArm  18.609 -11.096 -3.02808
LeftHand  -0.244104 0.0205437 5.32207
RightShoulder  3.04495 5.60014 27.4127
RightArm  -18.5483 -18.4155 15.5614
RightForeArm  2.12359 7.78522 3.54592
RightHand  -1.16137 3.80316 -14.8526
LeftUpLeg  -3.90988 4.17915 0.224135
LeftLeg  4.49669 9.05096 -4.34183
LeftFoot  0.437511 -0.416314 4.00913
LeftToes  1.2005e-010 6.1915e-012 3.32694e-011
159
root  -51.8466 41.2059 -30.643 178.217 -29.8945 179.97
RightUpLeg  -6.17728 -7.35763 -4.03065
RightLeg  10.4878 -0.393182 0.950798
RightFoot  -1.16192 0.0891828 -1.10489
RightToes  5.82063e-011 0 -3.6325e-017
Spine  1.86996 -0.255278 3.64005
Spine1  5.76255 0.0102092 -1.51569
HEad  -15.2421 5.81117 -2.48206
LeftShoulder1  2.05694 -3.47571 -23.0838
LeftArm  -15.7982 15.2593 -8.04731
LeftForeArm  17.3119 -9.68657 -2.7761
LeftHand  -0.244104 0.0205437 5.32207
RightShoulder  2.42659 4.55414 23.9415
RightArm  -17.1387 -17.705 11.8787
RightForeArm  0.52465 6.93628 3.75389
RightHand  -1.09402 3.44172 -14.5571
LeftUpLeg  -3.08994 4.10854 0.42115
LeftLeg  4.00704 9.42255 -4.12695
LeftFoot  0.271658 -0.419112 4.10407
LeftToes  1.2005e-010 6.1915e-012 3.32694e-011
160
root  -51.9821 41.2773 -30.9116 177.97 -29.2323 -179.72
RightUpLeg  -4.9202 -6.80873 -3.86553
RightLeg  9.14152 -0.557112 1.21012
RightFoot  -0.952798 0.105879 -1.23553
RightToes  5.82063e-011 0 -3.6325e-017
Spine  1.87722 -0.2043 4.3565
Spine1  5.59791 0.218118 -2.18269
HEad  -14.6764 5.99103 -2.37588
LeftShoulder1  1.48294 -2.23396 -19.2015
LeftArm  -16.6874 15.0511 -6.42114
LeftForeArm  16.6082 -9.39607 -2.37907
LeftHand  -0.244104 0.0205437 5.32207
RightShoulder  1.8936 3.58499 20.3262
RightArm  -15.6393 -16.6288 8.44772
RightForeArm  0.309799 6.40961 4.00792
RightHand  -1.00109 3.16803 -13.7637
LeftUpLeg  -2.21587 4.06802 0.653741
LeftLeg  3.53486 10.0892 -3.86594
LeftFoot  0.0326108 -0.41245 4.13772
LeftToes  1.2005e-010 6.1915e-012 3.32694e-011
161
root  -52.1257 41.3338 -31.1631 177.876 -28.6016 -179.547
RightUpLeg  -3.93621 -6.87415 -3.97345
RightLeg  7.78776 0.0833943 1.88899
RightFoot  -0.478462 0.145422 -1.5596
RightToes  5.82063e-011 0 -3.6325e-017
Spine  1.80556 -0.252621 4.90831
Spine1  5.22759 0.266464 -2.64684
HEad  -13.8195 6.49335 -2.5241
LeftShoulder1  1.00565 -0.921832 -15.8075
LeftArm  -17.6672 15.2933 -4.78892
LeftForeArm  16.1103 -10.0104 -2.0302
LeftHand  -0.244104 0.0205437 5.32207
RightShoulder  1.41139 2.58472 16.4937
RightArm  -14.6985 -15.0563 5.52837
RightForeArm  -0.230475 6.15554 4.25753
RightHand  -0.951472 2.89309 -13.5177
LeftUpLeg  -1.43865 4.01968 0.788045
LeftLeg  3.02924 10.738 -3.72467
LeftFoot  -0.187349 -0.38032 3.90498
LeftToes  1.2005e-010 6.1915e-012 3.32694e-011
